<svg width="156" height="156" viewBox="0 0 156 156" fill="none" xmlns="http://www.w3.org/2000/svg">
<path d="M123.581 52.9826C134.878 66.9312 123.879 70.1138 109.93 81.4104C95.9813 92.7069 84.3655 107.84 73.0689 93.891C61.7724 79.9424 63.9223 59.4771 77.871 48.1806C91.8196 36.884 112.285 39.034 123.581 52.9826Z" fill="#4FC9DA" fill-opacity="0.25"/>
<path d="M54 102H102M56.6667 94.0004H99.3333M62 94.0004V80.6671M72.6667 94.0004V80.6671M83.3333 94.0004V80.6671M94 94.0004V80.6671M78 64.6854L78.0197 64.6674M102 72.6671L83.6693 56.3731C81.6632 54.59 80.6603 53.6985 79.5285 53.3599C78.5312 53.0617 77.4688 53.0617 76.4715 53.3599C75.3397 53.6985 74.3368 54.59 72.3308 56.3731L54 72.6671H102Z" stroke="#4FC9DA" stroke-width="5.33333" stroke-linecap="round" stroke-linejoin="round"/>
</svg>
